<?xml version="1.0" encoding="UTF-8"?>
<svg xmlns="http://www.w3.org/2000/svg" xmlns:xlink="http://www.w3.org/1999/xlink" id="visual" viewBox="0 0 900 600" width="900" height="600" version="1.1">
  <path d="M0 513L21.5 513.3C43 513.7 86 514.3 128.8 515.5C171.7 516.7 214.3 518.3 257.2 521C300 523.7 343 527.3 385.8 529.7C428.7 532 471.3 533 514.2 530.8C557 528.7 600 523.3 642.8 519.3C685.7 515.3 728.3 512.7 771.2 514.7C814 516.7 857 523.3 878.5 526.7L900 530L900 601L878.5 601C857 601 814 601 771.2 601C728.3 601 685.7 601 642.8 601C600 601 557 601 514.2 601C471.3 601 428.7 601 385.8 601C343 601 300 601 257.2 601C214.3 601 171.7 601 128.8 601C86 601 43 601 21.5 601L0 601Z" fill="#4588f6"></path>
  <path d="M0 545L21.5 543.3C43 541.7 86 538.3 128.8 540C171.7 541.7 214.3 548.3 257.2 551.2C300 554 343 553 385.8 553.8C428.7 554.7 471.3 557.3 514.2 553.3C557 549.3 600 538.7 642.8 535.5C685.7 532.3 728.3 536.7 771.2 540.5C814 544.3 857 547.7 878.5 549.3L900 551L900 601L878.5 601C857 601 814 601 771.2 601C728.3 601 685.7 601 642.8 601C600 601 557 601 514.2 601C471.3 601 428.7 601 385.8 601C343 601 300 601 257.2 601C214.3 601 171.7 601 128.8 601C86 601 43 601 21.5 601L0 601Z" fill="#425689"></path>
  <path d="M0 575L21.5 574C43 573 86 571 128.8 570.5C171.7 570 214.3 571 257.2 571C300 571 343 570 385.8 567.8C428.7 565.7 471.3 562.3 514.2 564.3C557 566.3 600 573.7 642.8 575.7C685.7 577.7 728.3 574.3 771.2 570.2C814 566 857 561 878.5 558.5L900 556L900 601L878.5 601C857 601 814 601 771.2 601C728.3 601 685.7 601 642.8 601C600 601 557 601 514.2 601C471.3 601 428.7 601 385.8 601C343 601 300 601 257.2 601C214.3 601 171.7 601 128.8 601C86 601 43 601 21.5 601L0 601Z" fill="#292929"></path>
</svg>
