<?xml version="1.0" encoding="UTF-8"?>
<svg xmlns="http://www.w3.org/2000/svg" xmlns:xlink="http://www.w3.org/1999/xlink" id="visual" version="1.1" viewBox="0 472.5 900 128.5">
  <path d="M0 484L16.7 486C33.3 488 66.7 492 100 493.5C133.3 495 166.7 494 200 493.3C233.3 492.7 266.7 492.3 300 487.3C333.3 482.3 366.7 472.7 400 472.5C433.3 472.3 466.7 481.7 500 486C533.3 490.3 566.7 489.7 600 490.3C633.3 491 666.7 493 700 496C733.3 499 766.7 503 800 501.8C833.3 500.7 866.7 494.3 883.3 491.2L900 488L900 601L883.3 601C866.7 601 833.3 601 800 601C766.7 601 733.3 601 700 601C666.7 601 633.3 601 600 601C566.7 601 533.3 601 500 601C466.7 601 433.3 601 400 601C366.7 601 333.3 601 300 601C266.7 601 233.3 601 200 601C166.7 601 133.3 601 100 601C66.7 601 33.3 601 16.7 601L0 601Z" fill="#73c824"></path>
  <path d="M0 532L16.7 528.7C33.3 525.3 66.7 518.7 100 516.5C133.3 514.3 166.7 516.7 200 517.2C233.3 517.7 266.7 516.3 300 516C333.3 515.7 366.7 516.3 400 515.3C433.3 514.3 466.7 511.7 500 513.7C533.3 515.7 566.7 522.3 600 525.8C633.3 529.3 666.7 529.7 700 526.8C733.3 524 766.7 518 800 513.7C833.3 509.3 866.7 506.7 883.3 505.3L900 504L900 601L883.3 601C866.7 601 833.3 601 800 601C766.7 601 733.3 601 700 601C666.7 601 633.3 601 600 601C566.7 601 533.3 601 500 601C466.7 601 433.3 601 400 601C366.7 601 333.3 601 300 601C266.7 601 233.3 601 200 601C166.7 601 133.3 601 100 601C66.7 601 33.3 601 16.7 601L0 601Z" fill="#acd96f"></path>
  <path d="M0 547L16.7 545.8C33.3 544.7 66.7 542.3 100 538.2C133.3 534 166.7 528 200 527.8C233.3 527.7 266.7 533.3 300 534C333.3 534.7 366.7 530.3 400 528.3C433.3 526.3 466.7 526.7 500 527.8C533.3 529 566.7 531 600 529C633.3 527 666.7 521 700 524.2C733.3 527.3 766.7 539.7 800 542.2C833.3 544.7 866.7 537.3 883.3 533.7L900 530L900 601L883.3 601C866.7 601 833.3 601 800 601C766.7 601 733.3 601 700 601C666.7 601 633.3 601 600 601C566.7 601 533.3 601 500 601C466.7 601 433.3 601 400 601C366.7 601 333.3 601 300 601C266.7 601 233.3 601 200 601C166.7 601 133.3 601 100 601C66.7 601 33.3 601 16.7 601L0 601Z" fill="#d8e9b1"></path>
  <path d="M0 575L16.7 576C33.3 577 66.7 579 100 579.8C133.3 580.7 166.7 580.3 200 574.3C233.3 568.3 266.7 556.7 300 552.3C333.3 548 366.7 551 400 554.8C433.3 558.7 466.7 563.3 500 563.8C533.3 564.3 566.7 560.7 600 559.8C633.3 559 666.7 561 700 564.8C733.3 568.7 766.7 574.3 800 575.5C833.3 576.7 866.7 573.3 883.3 571.7L900 570L900 601L883.3 601C866.7 601 833.3 601 800 601C766.7 601 733.3 601 700 601C666.7 601 633.3 601 600 601C566.7 601 533.3 601 500 601C466.7 601 433.3 601 400 601C366.7 601 333.3 601 300 601C266.7 601 233.3 601 200 601C166.7 601 133.3 601 100 601C66.7 601 33.3 601 16.7 601L0 601Z" fill="#fafbf6"></path>
</svg>
